{
    "asset": {
        "generator": "FBX2glTF v0.9.7",
        "version": "2.0"
    },
    "scene": 0,
    "buffers": [
        {
            "byteLength": 116616,
            "uri": "buffer.bin"
        }
    ],
    "bufferViews": [
        {
            "buffer": 0,
            "byteLength": 17640,
            "byteOffset": 0,
            "target": 34963
        },
        {
            "buffer": 0,
            "byteLength": 37116,
            "byteOffset": 17640,
            "target": 34962
        },
        {
            "buffer": 0,
            "byteLength": 37116,
            "byteOffset": 54756,
            "target": 34962
        },
        {
            "buffer": 0,
            "byteLength": 24744,
            "byteOffset": 91872,
            "target": 34962
        }
    ],
    "scenes": [
        {
            "name": "Root Scene",
            "nodes": [
                0
            ]
        }
    ],
    "accessors": [
        {
            "componentType": 5123,
            "type": "SCALAR",
            "count": 8820,
            "bufferView": 0,
            "byteOffset": 0
        },
        {
            "componentType": 5126,
            "type": "VEC3",
            "count": 3093,
            "bufferView": 1,
            "byteOffset": 0,
            "min": [
                -3.1951756477356,
                -0.000829489144962281,
                -3.1951756477356
            ],
            "max": [
                3.1951756477356,
                4.70549631118774,
                3.1951756477356
            ]
        },
        {
            "componentType": 5126,
            "type": "VEC3",
            "count": 3093,
            "bufferView": 2,
            "byteOffset": 0
        },
        {
            "componentType": 5126,
            "type": "VEC2",
            "count": 3093,
            "bufferView": 3,
            "byteOffset": 0
        }
    ],
    "images": [
        {
            "name": "base_color_texture",
            "uri": "data:image/png;base64,"
        }
    ],
    "samplers": [
        {}
    ],
    "textures": [
        {
            "name": "base_color_texture",
            "sampler": 0,
            "source": 0
        }
    ],
    "materials": [
        {
            "name": "Egg_House_09",
            "alphaMode": "OPAQUE",
            "extras": {
                "fromFBX": {
                    "shadingModel": "Phong",
                    "isTruePBR": false
                }
            },
            "pbrMetallicRoughness": {
                "baseColorTexture": {
                    "index": 0,
                    "texCoord": 0
                },
                "baseColorFactor": [
                    1.0,
                    1.0,
                    1.0,
                    1.0
                ],
                "metallicFactor": 0.400000005960464,
                "roughnessFactor": 0.301511347293854
            }
        }
    ],
    "meshes": [
        {
            "name": "Egg_House_09",
            "primitives": [
                {
                    "material": 0,
                    "mode": 4,
                    "attributes": {
                        "NORMAL": 2,
                        "POSITION": 1,
                        "TEXCOORD_0": 3
                    },
                    "indices": 0
                }
            ]
        }
    ],
    "nodes": [
        {
            "name": "RootNode",
            "translation": [
                0.0,
                0.0,
                0.0
            ],
            "rotation": [
                0.0,
                0.0,
                0.0,
                1.0
            ],
            "scale": [
                1.0,
                1.0,
                1.0
            ],
            "children": [
                1
            ]
        },
        {
            "name": "FlyingLand_3",
            "translation": [
                0.0,
                0.0,
                0.0
            ],
            "rotation": [
                2.1855694143369e-08,
                0.0,
                0.0,
                1.0
            ],
            "scale": [
                1.0,
                1.00000023841858,
                1.00000023841858
            ],
            "children": [
                2
            ]
        },
        {
            "name": "Egg_House_09",
            "translation": [
                0.0,
                0.0,
                0.0
            ],
            "rotation": [
                -6.12323426292584e-17,
                1.0,
                6.12323426292584e-17,
                7.54979012640433e-08
            ],
            "scale": [
                0.799999952316284,
                0.799999952316284,
                0.799999952316284
            ],
            "mesh": 0
        }
    ]
}